<svg width="182" height="70" viewBox="0 0 182 70" fill="none" xmlns="http://www.w3.org/2000/svg">
<path fill-rule="evenodd" clip-rule="evenodd" d="M29.0083 44.1237C27.6798 44.1084 26.8552 43.7562 26.0765 43.3275C24.5648 42.516 23.0683 41.6893 21.5719 40.8625C19.0778 39.4947 16.5889 38.1219 14.105 36.7439C13.4484 36.3917 12.7918 36.0396 12.181 35.6262C11.784 35.3659 11.4175 35.0138 11.1121 34.6463C10.5319 33.942 10.4861 33.0999 10.822 32.2884C11.2954 31.1554 11.8603 30.0531 12.4253 28.966C13.2652 27.3124 14.1355 25.6895 15.0059 24.0512C16.029 22.0915 17.0673 20.1317 18.1057 18.1566C19.144 16.1815 20.1823 14.1758 21.236 12.1854C22.1216 10.4706 23.0378 8.75578 23.9387 7.04097C24.6564 5.67832 25.3588 4.28503 26.0917 2.92238C26.5193 2.1109 26.9163 1.2535 27.5882 0.595137C28.1226 0.0592597 28.7181 -0.0785373 29.2984 0.2583C29.6038 0.442029 29.9092 0.702312 30.0924 0.993217C30.5658 1.72813 31.0086 2.47836 31.4209 3.2439C32.0317 4.36159 32.6119 5.5099 33.2075 6.64289C34.1084 8.37301 35.0093 10.1031 35.9102 11.8332C36.6126 13.1806 37.3303 14.5126 38.0327 15.86C38.6537 17.0542 39.2797 18.2485 39.9109 19.4427C40.5522 20.6829 41.2088 21.9077 41.8501 23.1479C42.4762 24.3268 43.087 25.5211 43.713 26.7C44.5071 28.2311 45.3164 29.7315 46.0799 31.2779C46.3089 31.7066 46.4616 32.1813 46.599 32.6559C46.8739 33.7123 46.5074 34.6004 45.6981 35.2128C44.9652 35.764 44.1864 36.208 43.4076 36.652C42.0334 37.4329 40.6438 38.1831 39.2695 38.9333C37.8189 39.7295 36.3683 40.5103 34.9177 41.3065C33.5892 42.0414 32.2607 42.7763 30.917 43.4806C30.184 43.8787 29.4206 44.1237 29.0083 44.1237ZM22.1369 30.4971C22.7171 30.8186 23.2668 31.1401 23.8166 31.431C25.313 32.2578 26.8094 33.0693 28.3059 33.8961C28.5502 34.0339 28.764 34.0339 29.0083 33.9114C30.3673 33.1612 31.7263 32.4109 33.1006 31.6607C33.7826 31.283 34.4697 30.9003 35.162 30.5124C34.7497 29.4713 28.825 18.3097 28.596 18.1872C26.4429 22.2752 24.2899 26.3785 22.1369 30.4971Z" fill="#086C81"/>
<path fill-rule="evenodd" clip-rule="evenodd" d="M124.054 41.1538C124.054 45.6599 124.075 50.166 124.054 54.6721C124.034 56.9959 123.671 59.2792 122.761 61.4414C121.267 65.0382 118.741 67.4832 115.125 68.6148C110.822 69.9484 106.519 69.7463 102.337 68.049C99.1655 66.7557 96.8625 64.4522 95.6099 61.1181C95.3473 60.4108 95.1251 59.6632 95.0039 58.9357C94.8625 58.1073 95.4079 57.4202 96.1958 57.4C96.8221 57.3798 97.4685 57.3798 98.0948 57.3798C99.711 57.3798 101.327 57.4 102.923 57.3798C103.731 57.3798 104.357 57.6425 104.822 58.3497C105.913 59.9865 107.509 60.4108 109.307 60.3704C110.66 60.3502 111.893 59.9865 112.822 58.9357C113.65 58.0062 113.994 56.8544 114.115 55.642C114.196 54.8338 114.155 54.0053 114.176 53.1768C114.176 52.9949 114.155 52.8333 114.115 52.6716C113.994 51.9846 113.59 51.8027 113.044 52.2069C112.418 52.6514 111.852 53.197 111.206 53.6011C109.307 54.8135 107.206 55.1975 105.024 55.0156C100.559 54.6519 97.3473 52.2271 95.5291 48.1049C93.0645 42.5683 93.0645 36.8902 95.5291 31.3131C96.8423 28.3831 99.0039 26.221 101.994 25.15C105.287 23.9983 108.519 24.1801 111.529 26.1402C112.014 26.4635 112.458 26.8878 112.923 27.2515C113.61 27.7769 114.034 27.5748 114.155 26.706C114.176 26.4635 114.196 26.221 114.236 25.9785C114.337 25.3925 114.802 24.9278 115.388 24.8671C115.671 24.8267 115.974 24.8267 116.256 24.8267C118.317 24.8267 120.378 24.8267 122.438 24.8267C122.66 24.8267 122.883 24.8671 123.105 24.9076C123.61 25.0086 123.913 25.3521 123.994 25.8775C124.075 26.2816 124.075 26.7262 124.075 27.1505C124.088 31.8115 124.095 36.4793 124.095 41.1538C124.081 41.1538 124.068 41.1538 124.054 41.1538ZM114.176 39.3958C114.176 38.729 114.054 37.7995 113.711 36.9104C112.943 34.8695 111.529 33.6369 109.388 33.4752C107.267 33.3136 105.549 34.2229 104.6 36.2435C103.489 38.5875 103.509 41.0123 104.761 43.3159C106.479 46.4682 110.701 46.7713 112.883 43.9423C113.832 42.7097 114.176 41.2346 114.176 39.3958Z" fill="#086C81"/>
<path d="M60.5998 39.6383C60.5998 35.2938 60.5796 30.9291 60.5998 26.5645C60.5998 26.2008 60.721 25.8168 60.8422 25.4531C60.9836 25.0086 61.3675 24.8065 61.8119 24.7661C62.0947 24.7257 62.3776 24.7257 62.6604 24.7257C64.7345 24.7257 66.8085 24.7257 68.8826 24.7257C69.0846 24.7257 69.2799 24.7391 69.4685 24.7661C69.9937 24.8671 70.3978 25.2713 70.4786 25.8168C70.5392 26.1604 70.5594 26.5039 70.5998 26.8676C70.7008 27.6557 71.1452 27.8779 71.7917 27.4132C72.1351 27.1707 72.418 26.908 72.7412 26.6453C74.9432 24.9479 77.4281 24.3013 80.1553 24.5034C82.4988 24.6853 84.5998 25.4935 86.3372 27.2111C87.9735 28.8276 88.9028 30.8483 89.4079 33.0913C89.8725 35.1524 89.8725 37.2337 89.8725 39.315C89.8725 43.6661 89.8725 48.0241 89.8725 52.3887C89.8725 52.7524 89.8523 53.1162 89.8119 53.4799C89.7109 54.1063 89.3877 54.4296 88.7816 54.5508C88.5392 54.5913 88.29 54.6115 88.0341 54.6115C85.9601 54.6115 83.8927 54.6115 81.8321 54.6115C81.7378 54.6115 81.6503 54.6115 81.5695 54.6115C80.4382 54.5508 80.0543 54.1467 79.9937 52.9747C79.9937 52.712 79.9937 52.4291 79.9937 52.1664C79.9937 47.6671 79.987 43.161 79.9735 38.6481C79.9735 37.5772 79.8119 36.5466 79.3473 35.5767C78.4786 33.7379 76.6402 32.8084 74.5594 33.1115C72.317 33.455 70.822 35.1726 70.5998 37.6176C70.5594 38.143 70.5392 38.6683 70.5392 39.1937C70.5392 43.7806 70.5392 48.3474 70.519 52.9141C70.5324 53.0892 70.5257 53.2643 70.4988 53.4395C70.3776 54.1265 70.0543 54.47 69.3877 54.5508C69.0442 54.6115 68.7008 54.6115 68.3776 54.6115C66.519 54.6249 64.6537 54.6249 62.7816 54.6115C62.418 54.6115 62.0341 54.5913 61.6705 54.5306C61.1654 54.4498 60.8422 54.1265 60.7412 53.6011C60.6604 53.1566 60.5998 52.712 60.5998 52.2675C60.5796 48.0645 60.5796 43.8615 60.5796 39.6585C60.5931 39.645 60.5998 39.6383 60.5998 39.6383Z" fill="#086C81"/>
<path fill-rule="evenodd" clip-rule="evenodd" d="M142.923 54.9752C139.671 54.955 136.64 54.167 133.953 52.2069C130.741 49.8225 128.984 46.5086 128.398 42.5077C128.014 39.901 128.075 37.2943 128.822 34.7483C130.135 30.2018 132.903 27.0293 137.206 25.4128C141.428 23.8366 145.671 23.9377 149.772 25.8169C153.671 27.6153 156.135 30.7473 157.246 34.9908C158.115 38.2845 158.095 41.6186 157.085 44.8921C155.772 49.2365 153.024 52.2069 148.943 53.8639C147.004 54.6519 145.004 54.955 142.923 54.9752ZM147.812 39.6585C147.812 38.4259 147.65 37.2135 147.085 36.0819C146.236 34.3846 144.903 33.4348 143.024 33.4348C141.145 33.4348 139.751 34.3441 138.984 36.0819C137.913 38.4663 137.933 40.9315 138.984 43.2957C140.438 46.5288 144.681 46.8319 146.661 43.9221C147.549 42.6491 147.812 41.1942 147.812 39.6585Z" fill="#086C81"/>
<path d="M161.954 39.6383C161.954 35.2601 161.954 30.882 161.954 26.5039C161.967 26.2883 161.987 26.0728 162.014 25.8573C162.135 25.2106 162.479 24.8469 163.105 24.7661C163.388 24.7257 163.691 24.7257 163.974 24.7257C166.034 24.7257 168.095 24.7324 170.156 24.7459C170.371 24.7459 170.58 24.7594 170.782 24.7863C171.327 24.8873 171.671 25.2106 171.752 25.7764C171.812 26.1199 171.812 26.4635 171.832 26.8272C171.853 27.1707 171.853 27.5142 171.893 27.8577C172.014 28.666 172.438 28.8277 173.065 28.3427C173.287 28.1608 173.509 27.9386 173.711 27.7365C175.206 26.2614 176.903 25.1904 178.944 24.7257C179.092 24.6853 179.24 24.6583 179.388 24.6449C180.661 24.463 180.883 25.0894 181.024 26.0189C181.065 26.2614 181.045 26.5443 181.045 26.7868C181.045 29.0903 181.045 31.3737 181.024 33.6571C181.024 33.9602 180.964 34.2835 180.903 34.5866C180.782 35.1119 180.418 35.4353 179.913 35.4757C179.327 35.5363 178.762 35.5161 178.176 35.5565C177.327 35.6373 176.459 35.6777 175.63 35.8596C173.388 36.385 172.115 37.9611 171.913 40.3253C171.859 40.945 171.832 41.5646 171.832 42.1843C171.832 45.7407 171.832 49.2769 171.832 52.8333C171.832 52.9949 171.832 53.1566 171.792 53.3384C171.691 54.1467 171.348 54.5104 170.56 54.5711C170.075 54.6115 169.59 54.6317 169.105 54.6317C167.327 54.6317 165.529 54.6317 163.752 54.6115C162.378 54.6115 161.974 54.1871 161.974 52.7524C161.954 48.3676 161.954 44.0029 161.954 39.6383Z" fill="#086C81"/>
<path d="M52.0378 53.5626C51.0941 53.5017 50.1352 53.4713 49.2067 53.3648C47.9586 53.243 47.0301 52.543 46.4213 51.4624C45.4624 49.8188 44.5796 48.1296 43.712 46.4403C43.4989 46.0142 43.3924 45.512 43.3467 45.0402C43.2402 43.9901 43.7881 43.2596 44.5948 42.7422C45.4167 42.2096 46.2691 41.7378 47.1215 41.266C47.5933 41.0225 48.0804 40.7942 48.5979 40.6268C49.7547 40.2311 50.6831 40.5051 51.4137 41.5095C51.9465 42.24 52.3879 43.0466 52.814 43.8379C53.4077 44.9032 53.9708 45.9838 54.534 47.0795C55.1428 48.2513 55.7517 49.4384 56.33 50.6406C56.467 50.9298 56.5279 51.295 56.5431 51.6146C56.604 52.4669 56.0865 53.1213 55.2037 53.3039C54.7014 53.4104 54.1687 53.4561 53.6512 53.4865C53.1185 53.5169 52.5705 53.5017 52.0378 53.5017C52.0378 53.522 52.0378 53.5423 52.0378 53.5626Z" fill="#086C81"/>
<path d="M5.11471 53.5626C4.34988 53.5169 3.35559 53.4865 2.3919 53.3647C1.73414 53.2734 1.13756 52.9689 0.92341 52.2535C0.831629 51.9186 0.846926 51.5381 0.908113 51.188C1.04578 50.366 1.48939 49.6658 1.87181 48.9351C2.65194 47.4281 3.44737 45.9211 4.2581 44.4294C4.76289 43.5008 5.26768 42.5571 5.86425 41.6742C6.65968 40.4716 7.88342 40.1367 9.15305 40.7608C10.3921 41.385 11.6158 42.0243 12.7784 42.7702C13.9562 43.5313 14.3998 44.6425 13.8185 46.0125C13.2985 47.2454 12.656 48.4175 12.0288 49.6049C11.6311 50.3507 11.2181 51.0662 10.7592 51.7664C10.0861 52.7863 9.10716 53.3343 7.92931 53.4256C7.0574 53.5017 6.20078 53.5169 5.11471 53.5626Z" fill="#086C81"/>
</svg>
